<?xml version="1.0" encoding="UTF-8" standalone="no"?>
<!-- Created with Inkscape (http://www.inkscape.org/) -->

<svg
   xmlns:dc="http://purl.org/dc/elements/1.1/"
   xmlns:cc="http://creativecommons.org/ns#"
   xmlns:rdf="http://www.w3.org/1999/02/22-rdf-syntax-ns#"
   xmlns:svg="http://www.w3.org/2000/svg"
   xmlns="http://www.w3.org/2000/svg"
   xmlns:sodipodi="http://sodipodi.sourceforge.net/DTD/sodipodi-0.dtd"
   xmlns:inkscape="http://www.inkscape.org/namespaces/inkscape"
   id="svg3355"
   version="1.1"
   inkscape:version="0.91 r13725"
   xml:space="preserve"
   width="318.89749"
   height="184.2525"
   viewBox="0 0 318.89749 184.2525"
   sodipodi:docname="rockwaymassage.svg"><metadata
     id="metadata3361"><rdf:RDF><cc:Work
         rdf:about=""><dc:format>image/svg+xml</dc:format><dc:type
           rdf:resource="http://purl.org/dc/dcmitype/StillImage" /><dc:title></dc:title></cc:Work></rdf:RDF></metadata><defs
     id="defs3359"><clipPath
       clipPathUnits="userSpaceOnUse"
       id="clipPath3369"><path
         d="m 0,147.402 255.118,0 L 255.118,0 0,0 0,147.402 Z"
         id="path3371"
         inkscape:connector-curvature="0" /></clipPath><clipPath
       clipPathUnits="userSpaceOnUse"
       id="clipPath3413"><path
         d="m 127.589,107.819 c 6.289,0.889 12.151,-3.205 13.095,-9.141 0.94,-5.936 -3.396,-11.47 -9.685,-12.359 -6.289,-0.888 -12.151,3.204 -13.093,9.141 -0.941,5.936 3.394,11.47 9.683,12.359"
         id="path3415"
         inkscape:connector-curvature="0" /></clipPath><radialGradient
       fx="0"
       fy="0"
       cx="0"
       cy="0"
       r="1"
       gradientUnits="userSpaceOnUse"
       gradientTransform="matrix(-1.7053986,10.750534,11.388474,1.6098175,129.29492,97.068359)"
       spreadMethod="pad"
       id="radialGradient3421"><stop
         style="stop-opacity:1;stop-color:#c7db2e"
         offset="0"
         id="stop3423" /><stop
         style="stop-opacity:1;stop-color:#c7db2e"
         offset="0.011236"
         id="stop3425" /><stop
         style="stop-opacity:1;stop-color:#c7db2e"
         offset="0.58032925"
         id="stop3427" /><stop
         style="stop-opacity:1;stop-color:#87b827"
         offset="0.803371"
         id="stop3429" /><stop
         style="stop-opacity:1;stop-color:#87b827"
         offset="0.87977365"
         id="stop3431" /><stop
         style="stop-opacity:1;stop-color:#477e23"
         offset="1"
         id="stop3433" /></radialGradient><clipPath
       clipPathUnits="userSpaceOnUse"
       id="clipPath3441"><path
         d="m 128.011,105.159 c 4.733,0.669 9.144,-2.41 9.854,-6.878 0.708,-4.469 -2.555,-8.633 -7.288,-9.302 -4.734,-0.669 -9.145,2.412 -9.853,6.879 -0.709,4.468 2.553,8.632 7.287,9.301"
         id="path3443"
         inkscape:connector-curvature="0" /></clipPath><radialGradient
       fx="0"
       fy="0"
       cx="0"
       cy="0"
       r="1"
       gradientUnits="userSpaceOnUse"
       gradientTransform="matrix(-1.283371,8.0901337,8.5702057,1.211441,129.29492,97.068359)"
       spreadMethod="pad"
       id="radialGradient3449"><stop
         style="stop-opacity:1;stop-color:#c7db2e"
         offset="0"
         id="stop3451" /><stop
         style="stop-opacity:1;stop-color:#c7db2e"
         offset="0.011236"
         id="stop3453" /><stop
         style="stop-opacity:1;stop-color:#c7db2e"
         offset="0.58032925"
         id="stop3455" /><stop
         style="stop-opacity:1;stop-color:#87b827"
         offset="0.803371"
         id="stop3457" /><stop
         style="stop-opacity:1;stop-color:#87b827"
         offset="0.87977365"
         id="stop3459" /><stop
         style="stop-opacity:1;stop-color:#477e23"
         offset="1"
         id="stop3461" /></radialGradient><clipPath
       clipPathUnits="userSpaceOnUse"
       id="clipPath3469"><path
         d="m 128.54,101.835 c 2.786,0.394 5.385,-1.42 5.802,-4.052 0.418,-2.633 -1.504,-5.085 -4.291,-5.48 -2.79,-0.394 -5.388,1.422 -5.806,4.052 -0.418,2.632 1.505,5.086 4.295,5.48"
         id="path3471"
         inkscape:connector-curvature="0" /></clipPath><radialGradient
       fx="0"
       fy="0"
       cx="0"
       cy="0"
       r="1"
       gradientUnits="userSpaceOnUse"
       gradientTransform="matrix(-0.7559814,4.7655487,5.0483398,0.7136078,129.29395,97.068359)"
       spreadMethod="pad"
       id="radialGradient3477"><stop
         style="stop-opacity:1;stop-color:#c7db2e"
         offset="0"
         id="stop3479" /><stop
         style="stop-opacity:1;stop-color:#c7db2e"
         offset="0.011236"
         id="stop3481" /><stop
         style="stop-opacity:1;stop-color:#c7db2e"
         offset="0.58032925"
         id="stop3483" /><stop
         style="stop-opacity:1;stop-color:#87b827"
         offset="0.803371"
         id="stop3485" /><stop
         style="stop-opacity:1;stop-color:#87b827"
         offset="0.87977365"
         id="stop3487" /><stop
         style="stop-opacity:1;stop-color:#477e23"
         offset="1"
         id="stop3489" /></radialGradient><clipPath
       clipPathUnits="userSpaceOnUse"
       id="clipPath3497"><path
         d="m 131.794,97.069 c 0,-1.303 -1.119,-2.361 -2.501,-2.361 -1.38,0 -2.501,1.058 -2.501,2.361 0,1.305 1.121,2.362 2.501,2.362 1.382,0 2.501,-1.057 2.501,-2.362"
         id="path3499"
         inkscape:connector-curvature="0" /></clipPath><radialGradient
       fx="0"
       fy="0"
       cx="0"
       cy="0"
       r="1"
       gradientUnits="userSpaceOnUse"
       gradientTransform="matrix(2.5012207,0,0,-2.361145,129.29297,97.068848)"
       spreadMethod="pad"
       id="radialGradient3505"><stop
         style="stop-opacity:1;stop-color:#c7db2e"
         offset="0"
         id="stop3507" /><stop
         style="stop-opacity:1;stop-color:#c7db2e"
         offset="0.011236"
         id="stop3509" /><stop
         style="stop-opacity:1;stop-color:#c7db2e"
         offset="0.58032925"
         id="stop3511" /><stop
         style="stop-opacity:1;stop-color:#87b827"
         offset="0.803371"
         id="stop3513" /><stop
         style="stop-opacity:1;stop-color:#87b827"
         offset="0.87977365"
         id="stop3515" /><stop
         style="stop-opacity:1;stop-color:#477e23"
         offset="1"
         id="stop3517" /></radialGradient><clipPath
       clipPathUnits="userSpaceOnUse"
       id="clipPath3527"><path
         d="m 35.9204,74.71 43.021,0 0,-40.7803 -43.021,0 0,40.7803 z"
         id="path3529"
         inkscape:connector-curvature="0" /></clipPath><clipPath
       clipPathUnits="userSpaceOnUse"
       id="clipPath3531"><path
         d="M 54.247,74.482 C 65.991,76.149 76.941,68.472 78.702,57.336 80.459,46.204 72.361,35.82 60.615,34.156 48.868,32.492 37.918,40.165 36.16,51.302 34.404,62.436 42.5,72.814 54.247,74.482"
         id="path3533"
         inkscape:connector-curvature="0" /></clipPath><radialGradient
       fx="0"
       fy="0"
       cx="0"
       cy="0"
       r="1"
       gradientUnits="userSpaceOnUse"
       gradientTransform="matrix(-3.1851959,20.162888,21.270508,3.0195923,57.430664,54.319336)"
       spreadMethod="pad"
       id="radialGradient3535"><stop
         style="stop-opacity:1;stop-color:#c7db2e"
         offset="0"
         id="stop3537" /><stop
         style="stop-opacity:1;stop-color:#c7db2e"
         offset="0.011236"
         id="stop3539" /><stop
         style="stop-opacity:1;stop-color:#c7db2e"
         offset="0.58032925"
         id="stop3541" /><stop
         style="stop-opacity:1;stop-color:#87b827"
         offset="0.803371"
         id="stop3543" /><stop
         style="stop-opacity:1;stop-color:#87b827"
         offset="0.87977365"
         id="stop3545" /><stop
         style="stop-opacity:1;stop-color:#477e23"
         offset="1"
         id="stop3547" /></radialGradient><clipPath
       clipPathUnits="userSpaceOnUse"
       id="clipPath3549"><path
         d="M 55.033,69.494 C 63.874,70.746 72.112,64.971 73.438,56.593 74.76,48.21 68.665,40.402 59.828,39.146 50.985,37.892 42.745,43.668 41.422,52.048 c -1.322,8.38 4.77,16.189 13.611,17.446"
         id="path3551"
         inkscape:connector-curvature="0" /></clipPath><radialGradient
       fx="0"
       fy="0"
       cx="0"
       cy="0"
       r="1"
       gradientUnits="userSpaceOnUse"
       gradientTransform="matrix(-2.3970795,15.17395,16.007507,2.2724457,57.430664,54.320313)"
       spreadMethod="pad"
       id="radialGradient3553"><stop
         style="stop-opacity:1;stop-color:#c7db2e"
         offset="0"
         id="stop3555" /><stop
         style="stop-opacity:1;stop-color:#c7db2e"
         offset="0.011236"
         id="stop3557" /><stop
         style="stop-opacity:1;stop-color:#c7db2e"
         offset="0.58032925"
         id="stop3559" /><stop
         style="stop-opacity:1;stop-color:#87b827"
         offset="0.803371"
         id="stop3561" /><stop
         style="stop-opacity:1;stop-color:#87b827"
         offset="0.87977365"
         id="stop3563" /><stop
         style="stop-opacity:1;stop-color:#477e23"
         offset="1"
         id="stop3565" /></radialGradient><clipPath
       clipPathUnits="userSpaceOnUse"
       id="clipPath3567"><path
         d="M 56.02,63.259 C 61.226,63.997 66.08,60.594 66.858,55.658 67.639,50.721 64.049,46.119 58.842,45.38 53.634,44.641 48.78,48.045 48,52.98 c -0.781,4.937 2.812,9.54 8.02,10.279"
         id="path3569"
         inkscape:connector-curvature="0" /></clipPath><radialGradient
       fx="0"
       fy="0"
       cx="0"
       cy="0"
       r="1"
       gradientUnits="userSpaceOnUse"
       gradientTransform="matrix(-1.4120789,8.9387512,9.4297943,1.3386688,57.429199,54.318359)"
       spreadMethod="pad"
       id="radialGradient3571"><stop
         style="stop-opacity:1;stop-color:#c7db2e"
         offset="0"
         id="stop3573" /><stop
         style="stop-opacity:1;stop-color:#c7db2e"
         offset="0.011236"
         id="stop3575" /><stop
         style="stop-opacity:1;stop-color:#c7db2e"
         offset="0.58032925"
         id="stop3577" /><stop
         style="stop-opacity:1;stop-color:#87b827"
         offset="0.803371"
         id="stop3579" /><stop
         style="stop-opacity:1;stop-color:#87b827"
         offset="0.87977365"
         id="stop3581" /><stop
         style="stop-opacity:1;stop-color:#477e23"
         offset="1"
         id="stop3583" /></radialGradient><clipPath
       clipPathUnits="userSpaceOnUse"
       id="clipPath3585"><path
         d="m 62.098,54.321 c 0,-2.448 -2.089,-4.43 -4.67,-4.43 -2.578,0 -4.671,1.982 -4.671,4.43 0,2.447 2.093,4.425 4.671,4.425 2.581,0 4.67,-1.978 4.67,-4.425"
         id="path3587"
         inkscape:connector-curvature="0" /></clipPath><radialGradient
       fx="0"
       fy="0"
       cx="0"
       cy="0"
       r="1"
       gradientUnits="userSpaceOnUse"
       gradientTransform="matrix(4.6706543,0,0,-4.4277802,57.427734,54.319336)"
       spreadMethod="pad"
       id="radialGradient3589"><stop
         style="stop-opacity:1;stop-color:#c7db2e"
         offset="0"
         id="stop3591" /><stop
         style="stop-opacity:1;stop-color:#c7db2e"
         offset="0.011236"
         id="stop3593" /><stop
         style="stop-opacity:1;stop-color:#c7db2e"
         offset="0.58032925"
         id="stop3595" /><stop
         style="stop-opacity:1;stop-color:#87b827"
         offset="0.803371"
         id="stop3597" /><stop
         style="stop-opacity:1;stop-color:#87b827"
         offset="0.87977365"
         id="stop3599" /><stop
         style="stop-opacity:1;stop-color:#477e23"
         offset="1"
         id="stop3601" /></radialGradient></defs><sodipodi:namedview
     pagecolor="#ffffff"
     bordercolor="#666666"
     borderopacity="1"
     objecttolerance="10"
     gridtolerance="10"
     guidetolerance="10"
     inkscape:pageopacity="0"
     inkscape:pageshadow="2"
     inkscape:window-width="3838"
     inkscape:window-height="2132"
     id="namedview3357"
     showgrid="false"
     inkscape:zoom="10.246808"
     inkscape:cx="159.44875"
     inkscape:cy="92.126251"
     inkscape:window-x="0"
     inkscape:window-y="0"
     inkscape:window-maximized="1"
     inkscape:current-layer="g3363" /><g
     id="g3363"
     inkscape:groupmode="layer"
     inkscape:label="rockwaymassage"
     transform="matrix(1.25,0,0,-1.25,0,184.2525)"><path
       d="m 249.75,0 -245,0 0,147.401 245,0 0,-147.401 z"
       style="fill:#ebf39b;fill-opacity:1;fill-rule:nonzero;stroke:none"
       id="path3373"
       inkscape:connector-curvature="0" /><path
       d="m 249.5,84.734 -244.25,0 0,62.667 244.25,0 0,-62.667 z"
       style="fill:#5b3f7d;fill-opacity:1;fill-rule:nonzero;stroke:none"
       id="path3375"
       inkscape:connector-curvature="0" /><path
       d="m 249.5,83.819 -244.5,0 0,6.082 244.5,0 0,-6.082 z"
       style="fill:#89bf26;fill-opacity:1;fill-rule:nonzero;stroke:none"
       id="path3377"
       inkscape:connector-curvature="0" /><text
       transform="scale(1,-1)"
       style="font-variant:normal;font-weight:normal;font-stretch:normal;font-size:15.93620014px;font-family:'Trajan Pro';-inkscape-font-specification:TrajanPro-Regular;writing-mode:lr-tb;fill:#ebf39b;fill-opacity:1;fill-rule:nonzero;stroke:none"
       id="text3379"
       x="22.0093"
       y="-93.189499"><tspan
         x="22.0093 41.483337 53.96138 64.702377 75.443375 87.778 102.264 113.43528 143.71405 156.79767 172.36734 183.53862 196.71785 209.05247 220.78151"
         y="-93.189499"
         sodipodi:role="line"
         id="tspan3381">Massage Therapy</tspan></text>
<text
       transform="scale(1,-1)"
       style="font-variant:normal;font-weight:bold;font-stretch:normal;font-size:8.4368px;font-family:'Trajan Pro';-inkscape-font-specification:TrajanPro-Bold;writing-mode:lr-tb;fill:#5b3f7d;fill-opacity:1;fill-rule:nonzero;stroke:none"
       id="text3383"
       x="87.161102"
       y="-60.450199"><tspan
         x="87.161102 93.699623 99.276344 102.4992 106.84415 111.97373 115.19659 122.08102 127.20216 129.52228 136.61761 142.15216 148.35321 152.69817 157.76024 163.24416 168.3653 170.26358"
         y="-60.450199"
         sodipodi:role="line"
         id="tspan3385">Cristina Gruszka, </tspan></text>
<text
       transform="scale(1,-1)"
       style="font-variant:normal;font-weight:normal;font-stretch:normal;font-size:8.4368px;font-family:'Trajan Pro';-inkscape-font-specification:TrajanPro-Regular;writing-mode:lr-tb;fill:#5b3f7d;fill-opacity:1;fill-rule:nonzero;stroke:none"
       id="text3387"
       x="172.58299"
       y="-60.450199"><tspan
         x="172.58299 177.55228 179.45056 184.5042 186.40248 188.30075 190.8318 196.29041 198.18869 205.77338 207.67165 211.72131"
         y="-60.450199"
         sodipodi:role="line"
         id="tspan3389">b.a., r.m.t.</tspan></text>
<text
       transform="scale(1,-1)"
       style="font-variant:normal;font-weight:normal;font-stretch:normal;font-size:8.4368px;font-family:'Trajan Pro';-inkscape-font-specification:TrajanPro-Regular;writing-mode:lr-tb;fill:#5b3f7d;fill-opacity:1;fill-rule:nonzero;stroke:none"
       id="text3391"
       x="87.161102"
       y="-50.326199"><tspan
         x="87.161102 92.46785 97.116524 99.64756 105.34241 109.95734 114.69038 121.0686 123.97086 130.7878 135.60521 143.1899 147.62764 154.44458 159.38011 161.91115 169.14148 175.78969 179.81404"
         y="-50.326199"
         sodipodi:role="line"
         id="tspan3393">By Appointment Only</tspan></text>
<text
       transform="scale(1,-1)"
       style="font-variant:normal;font-weight:normal;font-stretch:normal;font-size:8.4368px;font-family:'Trajan Pro';-inkscape-font-specification:TrajanPro-Regular;writing-mode:lr-tb;fill:#5b3f7d;fill-opacity:1;fill-rule:nonzero;stroke:none"
       id="text3395"
       x="87.161102"
       y="-40.202099"><tspan
         x="87.161102 89.987427 94.593918 99.200417 103.80691 106.63323 111.23972 115.84622 120.45271 123.53214 128.13864 132.74513 137.35162"
         y="-40.202099"
         sodipodi:role="line"
         id="tspan3397">(519)744-4745</tspan></text>
<text
       transform="scale(1,-1)"
       style="font-variant:normal;font-weight:normal;font-stretch:normal;font-size:7.49940014px;font-family:'Trajan Pro';-inkscape-font-specification:TrajanPro-Regular;writing-mode:lr-tb;fill:#456129;fill-opacity:1;fill-rule:nonzero;stroke:none"
       id="text3399"
       x="23.975599"
       y="-20.242201"><tspan
         x="23.975599 28.445242 32.914883 37.384525 40.009319 46.233818 52.773296 57.640408 62.867489 67.067154 71.386803 75.503975 78.128769 82.590912 87.353027 92.580109 96.899765 101.21942 105.98154 108.60633 113.36845 118.30305 122.42023 127.18234 129.80714 135.63417 138.73892 143.32855 148.82561 155.2151 159.53476 165.81926 170.1389 175.36598 177.42833 180.05312 186.87756 194.16699 196.79178 204.08119 208.55083 215.2028 217.82759 222.29724 228.13927"
         y="-20.242201"
         sodipodi:role="line"
         id="tspan3401">589 Charles Street East Kitchener, ON N2G 2R4</tspan></text>
<path
       d="m 250,91 -245,0 0,0.551 245,0 0,-0.551 z"
       style="fill:#89bf26;fill-opacity:1;fill-rule:nonzero;stroke:none"
       id="path3403"
       inkscape:connector-curvature="0" /><text
       transform="scale(1,-1)"
       style="font-variant:normal;font-weight:normal;font-stretch:normal;font-size:19.68589973px;font-family:McBooHmk;-inkscape-font-specification:McBooHmk;writing-mode:lr-tb;fill:#a6c71d;fill-opacity:1;fill-rule:nonzero;stroke:none"
       id="text3405"
       x="94.745598"
       y="-113.2524"><tspan
         x="94.745598 106.87212 114.88428 124.07759 132.9953 146.2636 155.47661"
         y="-113.2524"
         sodipodi:role="line"
         id="tspan3407">Rockway</tspan></text>
<g
       id="g3409"><g
         id="g3411"
         clip-path="url(#clipPath3413)"><g
           id="g3417"><g
             id="g3419"><path
               d="m 127.589,107.819 c 6.289,0.889 12.151,-3.205 13.095,-9.141 0.94,-5.936 -3.396,-11.47 -9.685,-12.359 -6.289,-0.888 -12.151,3.204 -13.093,9.141 -0.941,5.936 3.394,11.47 9.683,12.359"
               style="fill:url(#radialGradient3421);stroke:none"
               id="path3435"
               inkscape:connector-curvature="0" /></g></g></g></g><g
       id="g3437"><g
         id="g3439"
         clip-path="url(#clipPath3441)"><g
           id="g3445"><g
             id="g3447"><path
               d="m 128.011,105.159 c 4.733,0.669 9.144,-2.41 9.854,-6.878 0.708,-4.469 -2.555,-8.633 -7.288,-9.302 -4.734,-0.669 -9.145,2.412 -9.853,6.879 -0.709,4.468 2.553,8.632 7.287,9.301"
               style="fill:url(#radialGradient3449);stroke:none"
               id="path3463"
               inkscape:connector-curvature="0" /></g></g></g></g><g
       id="g3465"><g
         id="g3467"
         clip-path="url(#clipPath3469)"><g
           id="g3473"><g
             id="g3475"><path
               d="m 128.54,101.835 c 2.786,0.394 5.385,-1.42 5.802,-4.052 0.418,-2.633 -1.504,-5.085 -4.291,-5.48 -2.79,-0.394 -5.388,1.422 -5.806,4.052 -0.418,2.632 1.505,5.086 4.295,5.48"
               style="fill:url(#radialGradient3477);stroke:none"
               id="path3491"
               inkscape:connector-curvature="0" /></g></g></g></g><g
       id="g3493"><g
         id="g3495"
         clip-path="url(#clipPath3497)"><g
           id="g3501"><g
             id="g3503"><path
               d="m 131.794,97.069 c 0,-1.303 -1.119,-2.361 -2.501,-2.361 -1.38,0 -2.501,1.058 -2.501,2.361 0,1.305 1.121,2.362 2.501,2.362 1.382,0 2.501,-1.057 2.501,-2.362"
               style="fill:url(#radialGradient3505);stroke:none"
               id="path3519"
               inkscape:connector-curvature="0" /></g></g></g></g><path
       d="m 127.516,107.839 c 1.455,2.64 8.063,4.289 12.22,-2.903 0.802,-1.293 2.985,-8.197 -2.588,-13.281 -2.597,-2.263 -6.504,-3.297 -10.063,-2.159 -3.622,1.03 -6.118,5.014 -5.122,8.39 0.845,3.441 5.257,4.546 7.273,2.913 2.205,-1.709 1.199,-4.626 -0.711,-4.346 -3.765,1.223 1.661,2.785 -0.471,0.437 1.19,1.292 -0.895,1.211 -0.319,0.397 0.326,-0.715 1.023,0.851 0.662,0.752 0.394,0.144 0.166,0.013 -0.371,0.86 -0.926,0.564 -3.383,-0.279 -3.211,-2.086 -0.169,-2.054 2.013,-4.19 4.931,-4.007 2.818,0.132 5.637,2.149 6.141,4.903 1.393,6.158 -4.858,10.45 -8.371,10.13"
       style="fill:#5b3f7d;fill-opacity:1;fill-rule:nonzero;stroke:none"
       id="path3521"
       inkscape:connector-curvature="0" /><g
       id="g3523"><g
         id="g3525" /><g
         id="g3603"><g
           clip-path="url(#clipPath3527)"
           id="g3605"
           style="opacity:0.16999799"><g
             id="g3607"><g
               clip-path="url(#clipPath3531)"
               id="g3609"><g
                 id="g3611"><g
                   id="g3613"><path
                     d="M 54.247,74.482 C 65.991,76.149 76.941,68.472 78.702,57.336 80.459,46.204 72.361,35.82 60.615,34.156 48.868,32.492 37.918,40.165 36.16,51.302 34.404,62.436 42.5,72.814 54.247,74.482"
                     style="fill:url(#radialGradient3535);stroke:none"
                     id="path3615"
                     inkscape:connector-curvature="0" /></g></g></g></g><g
             id="g3617"><g
               clip-path="url(#clipPath3549)"
               id="g3619"><g
                 id="g3621"><g
                   id="g3623"><path
                     d="M 55.033,69.494 C 63.874,70.746 72.112,64.971 73.438,56.593 74.76,48.21 68.665,40.402 59.828,39.146 50.985,37.892 42.745,43.668 41.422,52.048 c -1.322,8.38 4.77,16.189 13.611,17.446"
                     style="fill:url(#radialGradient3553);stroke:none"
                     id="path3625"
                     inkscape:connector-curvature="0" /></g></g></g></g><g
             id="g3627"><g
               clip-path="url(#clipPath3567)"
               id="g3629"><g
                 id="g3631"><g
                   id="g3633"><path
                     d="M 56.02,63.259 C 61.226,63.997 66.08,60.594 66.858,55.658 67.639,50.721 64.049,46.119 58.842,45.38 53.634,44.641 48.78,48.045 48,52.98 c -0.781,4.937 2.812,9.54 8.02,10.279"
                     style="fill:url(#radialGradient3571);stroke:none"
                     id="path3635"
                     inkscape:connector-curvature="0" /></g></g></g></g><g
             id="g3637"><g
               clip-path="url(#clipPath3585)"
               id="g3639"><g
                 id="g3641"><g
                   id="g3643"><path
                     d="m 62.098,54.321 c 0,-2.448 -2.089,-4.43 -4.67,-4.43 -2.578,0 -4.671,1.982 -4.671,4.43 0,2.447 2.093,4.425 4.671,4.425 2.581,0 4.67,-1.978 4.67,-4.425"
                     style="fill:url(#radialGradient3589);stroke:none"
                     id="path3645"
                     inkscape:connector-curvature="0" /></g></g></g></g></g></g></g><path
       d="m 55.833,74.487 c 1.727,2.57 4.898,4.818 9.429,4.682 4.295,-0.246 10.202,-3.013 13.456,-9.731 0.818,-1.608 2.002,-5.049 1.816,-9.699 0.143,-4.416 -2.011,-11.059 -7.019,-15.103 -4.848,-4.207 -12.138,-6.163 -18.76,-3.988 -6.774,2.003 -11.104,9.573 -9.118,15.692 1.671,6.281 9.728,8.16 13.238,5.234 3.898,-3.173 1.725,-8.117 -1.368,-7.754 -5.834,1.767 2.302,4.909 -0.82,0.71 -2.838,-2.043 5.881,8.597 -5.367,-0.221 -0.384,-3.49 3.082,-7.296 8.286,-7.012 4.978,0.223 10.075,3.816 11.054,8.768 2.786,11.093 -8.432,19.114 -14.827,18.422"
       style="fill:#ebf39b;fill-opacity:1;fill-rule:nonzero;stroke:none"
       id="path3647"
       inkscape:connector-curvature="0" /></g></svg>